<svg xmlns="http://www.w3.org/2000/svg" version="1.1" xmlns:xlink="http://www.w3.org/1999/xlink" xmlns:svgjs="http://svgjs.dev/svgjs" width="1500" height="511" viewBox="0 0 1500 511"><g transform="matrix(1,0,0,1,-0.9090909090909918,0.1717617611467972)"><svg viewBox="0 0 396 135" data-background-color="#000000" preserveAspectRatio="xMidYMid meet" height="511" width="1500" xmlns="http://www.w3.org/2000/svg" xmlns:xlink="http://www.w3.org/1999/xlink"><g id="tight-bounds" transform="matrix(1,0,0,1,0.2400000000000091,-0.04537737329710012)"><svg viewBox="0 0 395.52 135.09075474659417" height="135.09075474659417" width="395.52"><g><svg viewBox="0 0 627.9815295776692 214.48851839999998" height="135.09075474659417" width="395.52"><g transform="matrix(1,0,0,1,232.4615295776692,43.451212738424296)"><svg viewBox="0 0 395.52 127.58609292315138" height="127.58609292315138" width="395.52"><g id="textblocktransform"><svg viewBox="0 0 395.52 127.58609292315138" height="127.58609292315138" width="395.52" id="textblock"><g><svg viewBox="0 0 395.52 76.13230983949757" height="76.13230983949757" width="395.52"><g transform="matrix(1,0,0,1,0,0)"><svg width="395.52" viewBox="2.88 -40.9 215.88 41.38" height="76.13230983949757" data-palette-color="#71eafd"><path d="M19.3 0.48Q14.28 0.48 10.6-1.56 6.93-3.6 4.9-7.84 2.88-12.08 2.88-18.5L2.88-18.5Q2.88-24.93 4.91-29.16 6.95-33.4 10.64-35.44 14.33-37.48 19.3-37.48L19.3-37.48Q24.33-37.48 28.01-35.44 31.7-33.4 33.73-29.16 35.75-24.93 35.75-18.5L35.75-18.5Q35.75-12.1 33.7-7.85 31.65-3.6 27.96-1.56 24.28 0.48 19.3 0.48L19.3 0.48ZM19.3-3.1Q25.05-3.1 28.25-6.76 31.45-10.43 31.45-18.38L31.45-18.38Q31.45-26.48 28.25-30.19 25.05-33.9 19.3-33.9L19.3-33.9Q13.55-33.9 10.36-30.24 7.18-26.58 7.18-18.63L7.18-18.63Q7.18-3.1 19.3-3.1L19.3-3.1ZM52.85-3.58L62.2-27.13 66.3-27.13 55.32 0 50.1 0 39.12-27.13 43.5-27.13 52.85-3.58ZM92-13.48L92-12.23 73.37-12.23Q73.55-7.28 75.97-5.06 78.4-2.85 83.32-2.85L83.32-2.85Q86.67-2.85 90.62-4.03L90.62-4.03 90.62-0.7Q86.67 0.48 82.85 0.48L82.85 0.48Q76.05 0.48 72.63-2.94 69.22-6.35 69.22-13.58L69.22-13.58Q69.22-18.15 70.61-21.28 72-24.4 74.6-25.98 77.2-27.55 80.85-27.55L80.85-27.55Q86.25-27.55 89.12-23.99 92-20.43 92-13.48L92-13.48ZM80.82-24.6Q77.25-24.6 75.36-22.3 73.47-20 73.37-15L73.37-15 88.1-15Q88-20 86.17-22.3 84.35-24.6 80.82-24.6L80.82-24.6ZM98.22 0L98.22-27.13 101.64-27.13 101.99-23.5 102.24-23.5Q103.69-25.35 105.98-26.38 108.27-27.4 110.74-27.4L110.74-27.4Q112.02-27.4 113.24-27.18L113.24-27.18 113.24-23.38Q112.12-23.58 110.54-23.58L110.54-23.58Q108.34-23.58 106.06-22.63 103.77-21.68 102.32-19.85L102.32-19.85 102.32 0 98.22 0ZM131.27-37.48Q127.67-37.48 126-35.9 124.34-34.33 124.34-30.7L124.34-30.7 124.34-27.13 133.69-27.13 133.69-23.75 124.34-23.75 124.34 0 120.24 0 120.24-23.75 114.89-23.75 114.89-27.13 120.24-27.13 120.24-30.45Q120.24-35.6 122.93-38.25 125.62-40.9 130.87-40.9L130.87-40.9Q132.77-40.9 134.79-40.58L134.79-40.58 134.79-37.15Q132.84-37.48 131.27-37.48L131.27-37.48ZM142.74 0L138.64 0 138.64-40.4 142.74-40.4 142.74 0ZM161.69 0.48Q155.91 0.48 152.66-3 149.41-6.48 149.41-13.55L149.41-13.55Q149.41-20.58 152.66-24.06 155.91-27.55 161.69-27.55L161.69-27.55Q167.51-27.55 170.72-24.09 173.94-20.63 173.94-13.55L173.94-13.55Q173.94-8.85 172.44-5.71 170.94-2.58 168.19-1.05 165.44 0.48 161.69 0.48L161.69 0.48ZM161.69-2.85Q165.59-2.85 167.67-5.35 169.76-7.85 169.76-13.5L169.76-13.5Q169.76-19.23 167.69-21.73 165.61-24.23 161.69-24.23L161.69-24.23Q157.76-24.23 155.67-21.74 153.59-19.25 153.59-13.6L153.59-13.6Q153.59-7.88 155.67-5.36 157.76-2.85 161.69-2.85L161.69-2.85ZM207.86-4.3L214.88-27.13 218.76-27.13 210.38 0 205.56 0 198.21-23.15 190.83 0 185.98 0 177.56-27.13 181.58-27.13 188.61-4.23 195.83-27.13 200.66-27.13 207.86-4.3Z" opacity="1" transform="matrix(1,0,0,1,0,0)" fill="#71eafd" class="wordmark-text-0" data-fill-palette-color="primary" id="text-0"></path></svg></g></svg></g><g transform="matrix(1,0,0,1,0,94.1053210171668)"><svg viewBox="0 0 232.209792 33.48077190598459" height="33.48077190598459" width="232.209792"><g transform="matrix(1,0,0,1,0,0)"><svg width="232.209792" viewBox="-0.8 -35.5 268.68 36.5" height="33.48077190598459" data-palette-color="url(#077afa07-22a7-4c3b-bd12-815c1926e42a)"></svg></g></svg></g></svg></g></svg></g><g><svg viewBox="0 0 214.48851839999998 214.48851839999998" height="214.48851839999998" width="214.48851839999998"><g><svg></svg></g><g id="icon-0"><svg viewBox="0 0 214.48851839999998 214.48851839999998" height="214.48851839999998" width="214.48851839999998"><g></g><g transform="matrix(1,0,0,1,27.80406719999999,42.99251652216971)"><svg viewBox="0 0 158.880384 128.50348535566056" height="128.50348535566056" width="158.880384"><g><svg xmlns="http://www.w3.org/2000/svg" xmlns:xlink="http://www.w3.org/1999/xlink" version="1.1" x="0" y="0" viewBox="1.8 10.100000107039612 86.3 69.79999989296039" enable-background="new 0 0 90 90" xml:space="preserve" height="128.50348535566056" width="158.880384" class="icon-dxe-0" data-fill-palette-color="quaternary" id="dxe-0"><g fill="#000000" data-fill-palette-color="quaternary"><circle cx="28.7" cy="16.4" r="6.3" fill="#000000" data-fill-palette-color="quaternary"></circle><path d="M49.8 42.2H73.6C74.6 42.2 75.3 41.4 75.3 40.5V25C75.3 24 74.5 23.3 73.6 23.3H49.8C48.8 23.3 48.1 24.1 48.1 25V40.4C48.1 41.4 48.9 42.2 49.8 42.2" fill="#000000" data-fill-palette-color="quaternary"></path><path d="M56.5 42.6C55.7 42.6 55.1 43.2 55.1 44S55.7 45.4 56.5 45.4H67C67.8 45.4 68.4 44.8 68.4 44S67.8 42.6 67 42.6z" fill="#000000" data-fill-palette-color="quaternary"></path><path d="M85.8 46H4.2C2.9 46 1.8 47.1 1.8 48.4S2.9 50.8 4.2 50.8H85.7C87 50.8 88.1 49.7 88.1 48.4S87.1 46 85.8 46" fill="#000000" data-fill-palette-color="quaternary"></path><path d="M84.5 52H5.5C4.6 52 3.8 52.8 3.8 53.7V59C3.8 59.9 4.6 60.7 5.5 60.7H84.4C85.3 60.7 86.1 59.9 86.1 59V53.8C86.1 52.8 85.4 52 84.5 52" fill="#000000" data-fill-palette-color="quaternary"></path><path d="M84.5 61.7H5.5C4.6 61.7 3.8 62.5 3.8 63.4V68.6C3.8 69.5 4.6 70.3 5.5 70.3H84.4C85.3 70.3 86.1 69.5 86.1 68.6V63.4C86.1 62.4 85.4 61.7 84.5 61.7" fill="#000000" data-fill-palette-color="quaternary"></path><path d="M84.5 71.3H5.5C4.6 71.3 3.8 72.1 3.8 73V78.2C3.8 79.1 4.6 79.9 5.5 79.9H84.4C85.3 79.9 86.1 79.1 86.1 78.2V73C86.1 72.1 85.4 71.3 84.5 71.3" fill="#000000" data-fill-palette-color="quaternary"></path><path d="M19.9 33.7H21.1V45.6H35.8V33.7H36.8V45.6H42V28.9C41.9 26.4 39.9 24.5 37.4 24.5H19.3C16.8 24.5 14.8 26.5 14.7 28.9V45.7H19.9z" fill="#000000" data-fill-palette-color="quaternary"></path></g></svg></g></svg></g></svg></g></svg></g></svg></g><defs></defs><mask id="7b11c267-3ba3-455b-8aa0-d239489f8afc"><g id="SvgjsG2081"><svg viewBox="0 0 395.52 135.09075474659417" height="135.09075474659417" width="395.52"><g><svg viewBox="0 0 627.9815295776692 214.48851839999998" height="135.09075474659417" width="395.52"><g transform="matrix(1,0,0,1,232.4615295776692,43.451212738424296)"><svg viewBox="0 0 395.52 127.58609292315138" height="127.58609292315138" width="395.52"><g id="SvgjsG2080"><svg viewBox="0 0 395.52 127.58609292315138" height="127.58609292315138" width="395.52" id="SvgjsSvg2079"><g><svg viewBox="0 0 395.52 76.13230983949757" height="76.13230983949757" width="395.52"><g transform="matrix(1,0,0,1,0,0)"><svg width="395.52" viewBox="2.88 -40.9 215.88 41.38" height="76.13230983949757" data-palette-color="#71eafd"><path d="M19.3 0.48Q14.28 0.48 10.6-1.56 6.93-3.6 4.9-7.84 2.88-12.08 2.88-18.5L2.88-18.5Q2.88-24.93 4.91-29.16 6.95-33.4 10.64-35.44 14.33-37.48 19.3-37.48L19.3-37.48Q24.33-37.48 28.01-35.44 31.7-33.4 33.73-29.16 35.75-24.93 35.75-18.5L35.75-18.5Q35.75-12.1 33.7-7.85 31.65-3.6 27.96-1.56 24.28 0.48 19.3 0.48L19.3 0.48ZM19.3-3.1Q25.05-3.1 28.25-6.76 31.45-10.43 31.45-18.38L31.45-18.38Q31.45-26.48 28.25-30.19 25.05-33.9 19.3-33.9L19.3-33.9Q13.55-33.9 10.36-30.24 7.18-26.58 7.18-18.63L7.18-18.63Q7.18-3.1 19.3-3.1L19.3-3.1ZM52.85-3.58L62.2-27.13 66.3-27.13 55.32 0 50.1 0 39.12-27.13 43.5-27.13 52.85-3.58ZM92-13.48L92-12.23 73.37-12.23Q73.55-7.28 75.97-5.06 78.4-2.85 83.32-2.85L83.32-2.85Q86.67-2.85 90.62-4.03L90.62-4.03 90.62-0.7Q86.67 0.48 82.85 0.48L82.85 0.48Q76.05 0.48 72.63-2.94 69.22-6.35 69.22-13.58L69.22-13.58Q69.22-18.15 70.61-21.28 72-24.4 74.6-25.98 77.2-27.55 80.85-27.55L80.85-27.55Q86.25-27.55 89.12-23.99 92-20.43 92-13.48L92-13.48ZM80.82-24.6Q77.25-24.6 75.36-22.3 73.47-20 73.37-15L73.37-15 88.1-15Q88-20 86.17-22.3 84.35-24.6 80.82-24.6L80.82-24.6ZM98.22 0L98.22-27.13 101.64-27.13 101.99-23.5 102.24-23.5Q103.69-25.35 105.98-26.38 108.27-27.4 110.74-27.4L110.74-27.4Q112.02-27.4 113.24-27.18L113.24-27.18 113.24-23.38Q112.12-23.58 110.54-23.58L110.54-23.58Q108.34-23.58 106.06-22.63 103.77-21.68 102.32-19.85L102.32-19.85 102.32 0 98.22 0ZM131.27-37.48Q127.67-37.48 126-35.9 124.34-34.33 124.34-30.7L124.34-30.7 124.34-27.13 133.69-27.13 133.69-23.75 124.34-23.75 124.34 0 120.24 0 120.24-23.75 114.89-23.75 114.89-27.13 120.24-27.13 120.24-30.45Q120.24-35.6 122.93-38.25 125.62-40.9 130.87-40.9L130.87-40.9Q132.77-40.9 134.79-40.58L134.79-40.58 134.79-37.15Q132.84-37.48 131.27-37.48L131.27-37.48ZM142.74 0L138.64 0 138.64-40.4 142.74-40.4 142.74 0ZM161.69 0.48Q155.91 0.48 152.66-3 149.41-6.48 149.41-13.55L149.41-13.55Q149.41-20.58 152.66-24.06 155.91-27.55 161.69-27.55L161.69-27.55Q167.51-27.55 170.72-24.09 173.94-20.63 173.94-13.55L173.94-13.55Q173.94-8.85 172.44-5.71 170.94-2.58 168.19-1.05 165.44 0.48 161.69 0.48L161.69 0.48ZM161.69-2.85Q165.59-2.85 167.67-5.35 169.76-7.85 169.76-13.5L169.76-13.5Q169.76-19.23 167.69-21.73 165.61-24.23 161.69-24.23L161.69-24.23Q157.76-24.23 155.67-21.74 153.59-19.25 153.59-13.6L153.59-13.6Q153.59-7.88 155.67-5.36 157.76-2.85 161.69-2.85L161.69-2.85ZM207.86-4.3L214.88-27.13 218.76-27.13 210.38 0 205.56 0 198.21-23.15 190.83 0 185.98 0 177.56-27.13 181.58-27.13 188.61-4.23 195.83-27.13 200.66-27.13 207.86-4.3Z" opacity="1" transform="matrix(1,0,0,1,0,0)" fill="black" class="wordmark-text-0" id="SvgjsPath2078"></path></svg></g></svg></g><g transform="matrix(1,0,0,1,0,94.1053210171668)"><svg viewBox="0 0 232.209792 33.48077190598459" height="33.48077190598459" width="232.209792"><g transform="matrix(1,0,0,1,0,0)"><svg width="232.209792" viewBox="-0.8 -35.5 268.68 36.5" height="33.48077190598459" data-palette-color="url(#077afa07-22a7-4c3b-bd12-815c1926e42a)"><path d="M18.75-16.75L18.75-16.75 16.4-16.65Q6.6-16.15 3.3-13.8L3.3-13.8Q0.2-11.55 0.2-7.1L0.2-7.1Q0.2-4.15 1.3-2.43 2.4-0.7 4.4-0.7L4.4-0.7Q6.25-0.7 6.25-3.55L6.25-3.55 6.25-31.7 2.6-31.7 2.6-32.5 15.6-32.5 15.6-31.7 11.45-31.7 11.45-5.25Q11.45-2.15 9.93-0.58 8.4 1 5.68 1 2.95 1 1.07-1.03-0.8-3.05-0.8-6.8L-0.8-6.8Q-0.8-11.3 1.7-13.6L1.7-13.6Q4.3-15.9 7.9-16.6L7.9-16.6Q12.15-17.45 19-17.65L19-17.65Q24.4-17.8 25.78-18.13 27.15-18.45 28.45-18.8 29.75-19.15 30.35-19.6 30.95-20.05 31.78-20.75 32.6-21.45 33-22.3L33-22.3Q33.9-24.4 33.9-26.65 33.9-28.9 33.4-30.1 32.9-31.3 32.05-31.3L32.05-31.3Q30.4-31.3 30.4-28.65L30.4-28.65 30.4-0.8 34.55-0.8 34.55 0 21.55 0 21.55-0.8 25.2-0.8 25.2-27.75Q25.2-30.65 26.53-32.05 27.85-33.45 30.05-33.45 32.25-33.45 33.58-31.73 34.9-30 34.9-27.03 34.9-24.05 33.93-22.15 32.95-20.25 31.73-19.28 30.5-18.3 27.95-17.73 25.4-17.15 23.75-17.03 22.1-16.9 18.75-16.75ZM58.4-2.5Q55.5 1 50.3 1 45.1 1 42.2-2.5 39.3-6 39.3-11.5 39.3-17 42.2-20.5 45.1-24 50.3-24 55.5-24 58.4-20.5 61.3-17 61.3-11.5 61.3-6 58.4-2.5ZM56.35-8.15Q56.45-9.6 56.45-11.5 56.45-13.4 56.35-14.85 56.25-16.3 55.87-17.95 55.5-19.6 54.87-20.68 54.25-21.75 53.07-22.45 51.9-23.15 50.3-23.15 48.7-23.15 47.52-22.45 46.35-21.75 45.72-20.68 45.1-19.6 44.72-17.95 44.35-16.3 44.25-14.85 44.15-13.4 44.15-11.5 44.15-9.6 44.25-8.15 44.35-6.7 44.72-5.05 45.1-3.4 45.72-2.33 46.35-1.25 47.52-0.55 48.7 0.15 50.3 0.15 51.9 0.15 53.07-0.55 54.25-1.25 54.87-2.33 55.5-3.4 55.87-5.05 56.25-6.7 56.35-8.15ZM73.7-0.75L77-0.75 77 0 65.95 0 65.95-0.75 69.25-0.75 69.25-22.25 65.7-22.25 65.7-23 66.75-23Q70.7-23 73.8-23.65L73.8-23.65 73.8-18.65 74.1-18.65Q74.95-21.05 76.9-22.53 78.85-24 81.35-24L81.35-24Q87.3-24 88.4-18.65L88.4-18.65 88.7-18.65Q89.55-21.05 91.5-22.53 93.45-24 95.95-24L95.95-24Q100.25-24 101.7-21.5 103.15-19 103.15-13.75L103.15-13.75 103.15-0.75 106.45-0.75 106.45 0 95.4 0 95.4-0.75 98.7-0.75 98.7-14.9Q98.7-20.6 97.05-22L97.05-22Q96.25-22.6 95-22.6L95-22.6Q88.3-22.6 88.3-9.8L88.3-9.8 88.3-0.75 91.6-0.75 91.6 0 80.8 0 80.8-0.75 84.1-0.75 84.1-14.9Q84.1-20.6 82.45-22L82.45-22Q81.65-22.6 80.4-22.6L80.4-22.6Q73.7-22.6 73.7-9.8L73.7-9.8 73.7-0.75ZM121.24-24L121.24-24Q124.99-24 127.52-22.4 130.04-20.8 130.04-17.6L130.04-17.6Q130.04-12.65 124.39-11.5L124.39-11.5Q121.54-10.95 117.29-10.95L117.29-10.95 114.94-10.95 114.94-9.5Q114.94-5.45 116.62-2.93 118.29-0.4 121.52-0.4 124.74-0.4 126.57-2.3 128.39-4.2 129.14-7.2L129.14-7.2 130.04-7.1Q129.24-3.45 126.82-1.23 124.39 1 120.69 1L120.69 1Q115.49 1 112.79-2.43 110.09-5.85 110.09-11.5 110.09-17.15 112.99-20.58 115.89-24 121.24-24ZM114.94-13.25L114.94-11.85 116.69-11.85Q120.74-11.85 122.37-12.65 123.99-13.45 124.59-14.63 125.19-15.8 125.19-17.95 125.19-20.1 124.12-21.63 123.04-23.15 120.84-23.15 118.64-23.15 117.27-21.58 115.89-20 115.42-17.9 114.94-15.8 114.94-13.25L114.94-13.25ZM170.29-27Q170.04-28.85 167.54-30.65 165.04-32.45 162.19-32.45 159.34-32.45 157.54-31.65 155.74-30.85 154.64-29.5 153.54-28.15 152.84-26.05L152.84-26.05Q151.64-22.25 151.64-16.4L151.64-16.4Q151.64-7.9 152.74-5.2L152.74-5.2Q153.29-3.85 154.14-2.5L154.14-2.5Q155.79 0.05 159.69 0.05L159.69 0.05Q163.44 0.05 165.14-2.55L165.14-2.55Q166.94-5.25 167.34-8.8L167.34-8.8Q167.74-12.15 167.74-15.43 167.74-18.7 167.69-19.9L167.69-19.9Q167.89-19.9 168.54-19.9 169.19-19.9 170.84-20.65 172.49-21.4 172.84-23.1L172.84-23.1Q173.84-19.75 173.84-16.4L173.84-16.4Q173.84-9.05 170.11-4.03 166.39 1 159.69 1 152.99 1 149.26-4.03 145.54-9.05 145.54-16.65 145.54-24.25 149.56-28.88 153.59-33.5 160.69-33.5L160.69-33.5Q164.99-33.5 168.14-31.25 171.29-29 171.29-26.25L171.29-26.25Q171.29-24.55 170.21-23.45 169.14-22.35 167.74-22.35 166.34-22.35 165.34-23.2 164.34-24.05 164.34-25.45 164.34-26.85 165.11-27.65 165.89-28.45 166.99-28.45L166.99-28.45Q168.74-28.45 169.34-26.9L169.34-26.9Q169.49-26.5 169.84-26.5L169.84-26.5Q170.39-26.5 170.29-27L170.29-27ZM190.24-30.3L190.24-30.3Q190.88-30.3 190.88-31.55 190.88-32.8 189.99-33.7 189.09-34.6 187.41-34.6 185.74-34.6 184.71-33.3 183.69-32 183.69-30.05 183.69-28.1 184.91-26.2 186.13-24.3 186.28-23L186.28-23 190.94-23 190.94-22.25 186.34-22.25 186.34-0.75 189.63-0.75 189.63 0 178.59 0 178.59-0.75 181.88-0.75 181.88-22.25 178.34-22.25 178.34-23 181.88-23 181.88-26.4Q181.88-35.5 187.69-35.5L187.69-35.5Q189.44-35.5 190.61-34.33 191.78-33.15 191.78-31.55 191.78-29.95 190.78-28.8 189.78-27.65 188.44-27.65 187.09-27.65 186.26-28.43 185.44-29.2 185.44-30.33 185.44-31.45 186.09-32.23 186.74-33 187.76-33 188.78-33 189.34-32.5 189.88-32 189.88-31.25L189.88-31.25 189.84-30.7Q189.84-30.3 190.24-30.3ZM205.78-30.3L205.78-30.3Q206.43-30.3 206.43-31.55 206.43-32.8 205.53-33.7 204.63-34.6 202.96-34.6 201.28-34.6 200.26-33.3 199.23-32 199.23-30.05 199.23-28.1 200.46-26.2 201.68-24.3 201.83-23L201.83-23 206.48-23 206.48-22.25 201.88-22.25 201.88-0.75 205.18-0.75 205.18 0 194.13 0 194.13-0.75 197.43-0.75 197.43-22.25 193.88-22.25 193.88-23 197.43-23 197.43-26.4Q197.43-35.5 203.23-35.5L203.23-35.5Q204.98-35.5 206.16-34.33 207.33-33.15 207.33-31.55 207.33-29.95 206.33-28.8 205.33-27.65 203.98-27.65 202.63-27.65 201.81-28.43 200.98-29.2 200.98-30.33 200.98-31.45 201.63-32.23 202.28-33 203.31-33 204.33-33 204.88-32.5 205.43-32 205.43-31.25L205.43-31.25 205.38-30.7Q205.38-30.3 205.78-30.3ZM217.38-23.65L217.38-0.75 220.68-0.75 220.68 0 209.63 0 209.63-0.75 212.93-0.75 212.93-22.25 209.38-22.25 209.38-23 210.43-23Q214.33-23 217.38-23.65L217.38-23.65ZM212.91-28.48Q212.08-29.3 212.08-30.55 212.08-31.8 212.91-32.65 213.73-33.5 214.98-33.5 216.23-33.5 217.08-32.65 217.93-31.8 217.93-30.55 217.93-29.3 217.08-28.48 216.23-27.65 214.98-27.65 213.73-27.65 212.91-28.48ZM236.78-23L236.78-23Q229.98-23 229.98-11.7 229.98-0.4 236.88-0.4L236.88-0.4Q239.48-0.4 241.15-2.3 242.83-4.2 243.48-7.2L243.48-7.2 244.38-7.1Q243.63-3.45 241.38-1.23 239.13 1 235.68 1L235.68 1Q230.53 1 227.83-2.48 225.13-5.95 225.13-11.6 225.13-17.25 227.85-20.63 230.58-24 235.98-24L235.98-24Q239.43-24 241.58-22.5 243.73-21 243.73-17.95L243.73-17.95Q243.73-16.45 242.75-15.43 241.78-14.4 240.45-14.4 239.13-14.4 238.3-15.18 237.48-15.95 237.48-17.07 237.48-18.2 238.13-18.98 238.78-19.75 239.88-19.75L239.88-19.75Q241.58-19.75 241.88-18.45L241.88-18.45Q241.93-18 242.35-18 242.78-18 242.78-18.45L242.78-18.45Q242.78-20.15 241.25-21.58 239.73-23 236.78-23ZM259.08-24L259.08-24Q262.83-24 265.35-22.4 267.88-20.8 267.88-17.6L267.88-17.6Q267.88-12.65 262.23-11.5L262.23-11.5Q259.38-10.95 255.13-10.95L255.13-10.95 252.78-10.95 252.78-9.5Q252.78-5.45 254.45-2.93 256.13-0.4 259.35-0.4 262.58-0.4 264.4-2.3 266.23-4.2 266.98-7.2L266.98-7.2 267.88-7.1Q267.08-3.45 264.65-1.23 262.23 1 258.53 1L258.53 1Q253.33 1 250.63-2.43 247.93-5.85 247.93-11.5 247.93-17.15 250.83-20.58 253.73-24 259.08-24ZM252.78-13.25L252.78-11.85 254.53-11.85Q258.58-11.85 260.2-12.65 261.83-13.45 262.43-14.63 263.03-15.8 263.03-17.95 263.03-20.1 261.95-21.63 260.88-23.15 258.68-23.15 256.48-23.15 255.1-21.58 253.73-20 253.25-17.9 252.78-15.8 252.78-13.25L252.78-13.25Z" opacity="1" transform="matrix(1,0,0,1,0,0)" fill="white" class="slogan-text-1" id="SvgjsPath2077"></path></svg></g></svg></g></svg></g></svg></g><g><svg viewBox="0 0 214.48851839999998 214.48851839999998" height="214.48851839999998" width="214.48851839999998"><g><svg></svg></g><g id="SvgjsG2076"><svg viewBox="0 0 214.48851839999998 214.48851839999998" height="214.48851839999998" width="214.48851839999998"><g><rect width="195.02567136" height="195.02567136" x="9.731423519999993" y="9.731423519999993" fill="black"></rect><rect width="195.02567136" height="195.02567136" x="19.462847039999993" y="-5.329070518200751e-15" fill="black" opacity="0.5"></rect></g><g transform="matrix(1,0,0,1,27.80406719999999,42.99251652216971)"><svg viewBox="0 0 158.880384 128.50348535566056" height="128.50348535566056" width="158.880384"><g><svg xmlns="http://www.w3.org/2000/svg" xmlns:xlink="http://www.w3.org/1999/xlink" version="1.1" x="0" y="0" viewBox="1.8 10.100000107039612 86.3 69.79999989296039" enable-background="new 0 0 90 90" xml:space="preserve" height="128.50348535566056" width="158.880384" class="icon-dxe-0" data-fill-palette-color="quaternary" id="SvgjsSvg2075"><g fill="black"><circle cx="28.7" cy="16.4" r="6.3" fill="black"></circle><path d="M49.8 42.2H73.6C74.6 42.2 75.3 41.4 75.3 40.5V25C75.3 24 74.5 23.3 73.6 23.3H49.8C48.8 23.3 48.1 24.1 48.1 25V40.4C48.1 41.4 48.9 42.2 49.8 42.2" fill="black"></path><path d="M56.5 42.6C55.7 42.6 55.1 43.2 55.1 44S55.7 45.4 56.5 45.4H67C67.8 45.4 68.4 44.8 68.4 44S67.8 42.6 67 42.6z" fill="black"></path><path d="M85.8 46H4.2C2.9 46 1.8 47.1 1.8 48.4S2.9 50.8 4.2 50.8H85.7C87 50.8 88.1 49.7 88.1 48.4S87.1 46 85.8 46" fill="black"></path><path d="M84.5 52H5.5C4.6 52 3.8 52.8 3.8 53.7V59C3.8 59.9 4.6 60.7 5.5 60.7H84.4C85.3 60.7 86.1 59.9 86.1 59V53.8C86.1 52.8 85.4 52 84.5 52" fill="black"></path><path d="M84.5 61.7H5.5C4.6 61.7 3.8 62.5 3.8 63.4V68.6C3.8 69.5 4.6 70.3 5.5 70.3H84.4C85.3 70.3 86.1 69.5 86.1 68.6V63.4C86.1 62.4 85.4 61.7 84.5 61.7" fill="black"></path><path d="M84.5 71.3H5.5C4.6 71.3 3.8 72.1 3.8 73V78.2C3.8 79.1 4.6 79.9 5.5 79.9H84.4C85.3 79.9 86.1 79.1 86.1 78.2V73C86.1 72.1 85.4 71.3 84.5 71.3" fill="black"></path><path d="M19.9 33.7H21.1V45.6H35.8V33.7H36.8V45.6H42V28.9C41.9 26.4 39.9 24.5 37.4 24.5H19.3C16.8 24.5 14.8 26.5 14.7 28.9V45.7H19.9z" fill="black"></path></g></svg></g></svg></g></svg></g></svg></g></svg></g><defs><mask></mask></defs></svg><rect width="395.52" height="135.09075474659417" fill="black" stroke="none" visibility="hidden"></rect></g></mask><linearGradient x1="0" x2="1" y1="0.578" y2="0.595" id="077afa07-22a7-4c3b-bd12-815c1926e42a"><stop stop-color="#6ee2f5" offset="0"></stop><stop stop-color="#6454f0" offset="1"></stop></linearGradient><rect width="395.52" height="135.09075474659417" fill="url(#077afa07-22a7-4c3b-bd12-815c1926e42a)" mask="url(#7b11c267-3ba3-455b-8aa0-d239489f8afc)" data-fill-palette-color="secondary"></rect><mask id="a99971a5-35e8-4d02-a944-5b18b4aea4ed"><g id="SvgjsG2094"><svg viewBox="0 0 395.52 135.09075474659417" height="135.09075474659417" width="395.52"><g><svg viewBox="0 0 627.9815295776692 214.48851839999998" height="135.09075474659417" width="395.52"><g transform="matrix(1,0,0,1,232.4615295776692,43.451212738424296)"><svg viewBox="0 0 395.52 127.58609292315138" height="127.58609292315138" width="395.52"><g id="SvgjsG2093"><svg viewBox="0 0 395.52 127.58609292315138" height="127.58609292315138" width="395.52" id="SvgjsSvg2092"><g><svg viewBox="0 0 395.52 76.13230983949757" height="76.13230983949757" width="395.52"><g transform="matrix(1,0,0,1,0,0)"><svg width="395.52" viewBox="2.88 -40.9 215.88 41.38" height="76.13230983949757" data-palette-color="#71eafd"><path d="M19.3 0.48Q14.28 0.48 10.6-1.56 6.93-3.6 4.9-7.84 2.88-12.08 2.88-18.5L2.88-18.5Q2.88-24.93 4.91-29.16 6.95-33.4 10.64-35.44 14.33-37.48 19.3-37.48L19.3-37.48Q24.33-37.48 28.01-35.44 31.7-33.4 33.73-29.16 35.75-24.93 35.75-18.5L35.75-18.5Q35.75-12.1 33.7-7.85 31.65-3.6 27.96-1.56 24.28 0.48 19.3 0.48L19.3 0.48ZM19.3-3.1Q25.05-3.1 28.25-6.76 31.45-10.43 31.45-18.38L31.45-18.38Q31.45-26.48 28.25-30.19 25.05-33.9 19.3-33.9L19.3-33.9Q13.55-33.9 10.36-30.24 7.18-26.58 7.18-18.63L7.18-18.63Q7.18-3.1 19.3-3.1L19.3-3.1ZM52.85-3.58L62.2-27.13 66.3-27.13 55.32 0 50.1 0 39.12-27.13 43.5-27.13 52.85-3.58ZM92-13.48L92-12.23 73.37-12.23Q73.55-7.28 75.97-5.06 78.4-2.85 83.32-2.85L83.32-2.85Q86.67-2.85 90.62-4.03L90.62-4.03 90.62-0.7Q86.67 0.48 82.85 0.48L82.85 0.48Q76.05 0.48 72.63-2.94 69.22-6.35 69.22-13.58L69.22-13.58Q69.22-18.15 70.61-21.28 72-24.4 74.6-25.98 77.2-27.55 80.85-27.55L80.85-27.55Q86.25-27.55 89.12-23.99 92-20.43 92-13.48L92-13.48ZM80.82-24.6Q77.25-24.6 75.36-22.3 73.47-20 73.37-15L73.37-15 88.1-15Q88-20 86.17-22.3 84.35-24.6 80.82-24.6L80.82-24.6ZM98.22 0L98.22-27.13 101.64-27.13 101.99-23.5 102.24-23.5Q103.69-25.35 105.98-26.38 108.27-27.4 110.74-27.4L110.74-27.4Q112.02-27.4 113.24-27.18L113.24-27.18 113.24-23.38Q112.12-23.58 110.54-23.58L110.54-23.58Q108.34-23.58 106.06-22.63 103.77-21.68 102.32-19.85L102.32-19.85 102.32 0 98.22 0ZM131.27-37.48Q127.67-37.48 126-35.9 124.34-34.33 124.34-30.7L124.34-30.7 124.34-27.13 133.69-27.13 133.69-23.75 124.34-23.75 124.34 0 120.24 0 120.24-23.75 114.89-23.75 114.89-27.13 120.24-27.13 120.24-30.45Q120.24-35.6 122.93-38.25 125.62-40.9 130.87-40.9L130.87-40.9Q132.77-40.9 134.79-40.58L134.79-40.58 134.79-37.15Q132.84-37.48 131.27-37.48L131.27-37.48ZM142.74 0L138.64 0 138.64-40.4 142.74-40.4 142.74 0ZM161.69 0.48Q155.91 0.48 152.66-3 149.41-6.48 149.41-13.55L149.41-13.55Q149.41-20.58 152.66-24.06 155.91-27.55 161.69-27.55L161.69-27.55Q167.51-27.55 170.72-24.09 173.94-20.63 173.94-13.55L173.94-13.55Q173.94-8.85 172.44-5.71 170.94-2.58 168.19-1.05 165.44 0.48 161.69 0.48L161.69 0.48ZM161.69-2.85Q165.59-2.85 167.67-5.35 169.76-7.85 169.76-13.5L169.76-13.5Q169.76-19.23 167.69-21.73 165.61-24.23 161.69-24.23L161.69-24.23Q157.76-24.23 155.67-21.74 153.59-19.25 153.59-13.6L153.59-13.6Q153.59-7.88 155.67-5.36 157.76-2.85 161.69-2.85L161.69-2.85ZM207.86-4.3L214.88-27.13 218.76-27.13 210.38 0 205.56 0 198.21-23.15 190.83 0 185.98 0 177.56-27.13 181.58-27.13 188.61-4.23 195.83-27.13 200.66-27.13 207.86-4.3Z" opacity="1" transform="matrix(1,0,0,1,0,0)" fill="black" class="wordmark-text-0" id="SvgjsPath2091"></path></svg></g></svg></g><g transform="matrix(1,0,0,1,0,94.1053210171668)"><svg viewBox="0 0 232.209792 33.48077190598459" height="33.48077190598459" width="232.209792"><g transform="matrix(1,0,0,1,0,0)"><svg width="232.209792" viewBox="-0.8 -35.5 268.68 36.5" height="33.48077190598459" data-palette-color="url(#077afa07-22a7-4c3b-bd12-815c1926e42a)"></svg></g></svg></g></svg></g></svg></g><g><svg viewBox="0 0 214.48851839999998 214.48851839999998" height="214.48851839999998" width="214.48851839999998"><g><svg></svg></g><g id="SvgjsG2090"><svg viewBox="0 0 214.48851839999998 214.48851839999998" height="214.48851839999998" width="214.48851839999998"><g><rect width="195.02567136" height="195.02567136" x="9.731423519999993" y="9.731423519999993" fill="white"></rect><rect width="195.02567136" height="195.02567136" x="19.462847039999993" y="-5.329070518200751e-15" fill="white" opacity="0.5"></rect></g><g transform="matrix(1,0,0,1,27.80406719999999,42.99251652216971)"><svg viewBox="0 0 158.880384 128.50348535566056" height="128.50348535566056" width="158.880384"><g><svg xmlns="http://www.w3.org/2000/svg" xmlns:xlink="http://www.w3.org/1999/xlink" version="1.1" x="0" y="0" viewBox="1.8 10.100000107039612 86.3 69.79999989296039" enable-background="new 0 0 90 90" xml:space="preserve" height="128.50348535566056" width="158.880384" class="icon-dxe-0" data-fill-palette-color="quaternary" id="SvgjsSvg2089"><g fill="black"><circle cx="28.7" cy="16.4" r="6.3" fill="black"></circle><path d="M49.8 42.2H73.6C74.6 42.2 75.3 41.4 75.3 40.5V25C75.3 24 74.5 23.3 73.6 23.3H49.8C48.8 23.3 48.1 24.1 48.1 25V40.4C48.1 41.4 48.9 42.2 49.8 42.2" fill="black"></path><path d="M56.5 42.6C55.7 42.6 55.1 43.2 55.1 44S55.7 45.4 56.5 45.4H67C67.8 45.4 68.4 44.8 68.4 44S67.8 42.6 67 42.6z" fill="black"></path><path d="M85.8 46H4.2C2.9 46 1.8 47.1 1.8 48.4S2.9 50.8 4.2 50.8H85.7C87 50.8 88.1 49.7 88.1 48.4S87.1 46 85.8 46" fill="black"></path><path d="M84.5 52H5.5C4.6 52 3.8 52.8 3.8 53.7V59C3.8 59.9 4.6 60.7 5.5 60.7H84.4C85.3 60.7 86.1 59.9 86.1 59V53.8C86.1 52.8 85.4 52 84.5 52" fill="black"></path><path d="M84.5 61.7H5.5C4.6 61.7 3.8 62.5 3.8 63.4V68.6C3.8 69.5 4.6 70.3 5.5 70.3H84.4C85.3 70.3 86.1 69.5 86.1 68.6V63.4C86.1 62.4 85.4 61.7 84.5 61.7" fill="black"></path><path d="M84.5 71.3H5.5C4.6 71.3 3.8 72.1 3.8 73V78.2C3.8 79.1 4.6 79.9 5.5 79.9H84.4C85.3 79.9 86.1 79.1 86.1 78.2V73C86.1 72.1 85.4 71.3 84.5 71.3" fill="black"></path><path d="M19.9 33.7H21.1V45.6H35.8V33.7H36.8V45.6H42V28.9C41.9 26.4 39.9 24.5 37.4 24.5H19.3C16.8 24.5 14.8 26.5 14.7 28.9V45.7H19.9z" fill="black"></path></g></svg></g></svg></g></svg></g></svg></g></svg></g><defs><mask></mask></defs><mask><g id="SvgjsG2088"><svg viewBox="0 0 395.52 135.09075474659417" height="135.09075474659417" width="395.52"><g><svg viewBox="0 0 627.9815295776692 214.48851839999998" height="135.09075474659417" width="395.52"><g transform="matrix(1,0,0,1,232.4615295776692,43.451212738424296)"><svg viewBox="0 0 395.52 127.58609292315138" height="127.58609292315138" width="395.52"><g id="SvgjsG2087"><svg viewBox="0 0 395.52 127.58609292315138" height="127.58609292315138" width="395.52" id="SvgjsSvg2086"><g><svg viewBox="0 0 395.52 76.13230983949757" height="76.13230983949757" width="395.52"><g transform="matrix(1,0,0,1,0,0)"><svg width="395.52" viewBox="2.88 -40.9 215.88 41.38" height="76.13230983949757" data-palette-color="#71eafd"><path d="M19.3 0.48Q14.28 0.48 10.6-1.56 6.93-3.6 4.9-7.84 2.88-12.08 2.88-18.5L2.88-18.5Q2.88-24.93 4.91-29.16 6.95-33.4 10.64-35.44 14.33-37.48 19.3-37.48L19.3-37.48Q24.33-37.48 28.01-35.44 31.7-33.4 33.73-29.16 35.75-24.93 35.75-18.5L35.75-18.5Q35.75-12.1 33.7-7.85 31.65-3.6 27.96-1.56 24.28 0.48 19.3 0.48L19.3 0.48ZM19.3-3.1Q25.05-3.1 28.25-6.76 31.45-10.43 31.45-18.38L31.45-18.38Q31.45-26.48 28.25-30.19 25.05-33.9 19.3-33.9L19.3-33.9Q13.55-33.9 10.36-30.24 7.18-26.58 7.18-18.63L7.18-18.63Q7.18-3.1 19.3-3.1L19.3-3.1ZM52.85-3.58L62.2-27.13 66.3-27.13 55.32 0 50.1 0 39.12-27.13 43.5-27.13 52.85-3.58ZM92-13.48L92-12.23 73.37-12.23Q73.55-7.28 75.97-5.06 78.4-2.85 83.32-2.85L83.32-2.85Q86.67-2.85 90.62-4.03L90.62-4.03 90.62-0.7Q86.67 0.48 82.85 0.48L82.85 0.48Q76.05 0.48 72.63-2.94 69.22-6.35 69.22-13.58L69.22-13.58Q69.22-18.15 70.61-21.28 72-24.4 74.6-25.98 77.2-27.55 80.85-27.55L80.85-27.55Q86.25-27.55 89.12-23.99 92-20.43 92-13.48L92-13.48ZM80.82-24.6Q77.25-24.6 75.36-22.3 73.47-20 73.37-15L73.37-15 88.1-15Q88-20 86.17-22.3 84.35-24.6 80.82-24.6L80.82-24.6ZM98.22 0L98.22-27.13 101.64-27.13 101.99-23.5 102.24-23.5Q103.69-25.35 105.98-26.38 108.27-27.4 110.74-27.4L110.74-27.4Q112.02-27.4 113.24-27.18L113.24-27.18 113.24-23.38Q112.12-23.58 110.54-23.58L110.54-23.58Q108.34-23.58 106.06-22.63 103.77-21.68 102.32-19.85L102.32-19.85 102.32 0 98.22 0ZM131.27-37.48Q127.67-37.48 126-35.9 124.34-34.33 124.34-30.7L124.34-30.7 124.34-27.13 133.69-27.13 133.69-23.75 124.34-23.75 124.34 0 120.24 0 120.24-23.75 114.89-23.75 114.89-27.13 120.24-27.13 120.24-30.45Q120.24-35.6 122.93-38.25 125.62-40.9 130.87-40.9L130.87-40.9Q132.77-40.9 134.79-40.58L134.79-40.58 134.79-37.15Q132.84-37.48 131.27-37.48L131.27-37.48ZM142.74 0L138.64 0 138.64-40.4 142.74-40.4 142.74 0ZM161.69 0.48Q155.91 0.48 152.66-3 149.41-6.48 149.41-13.55L149.41-13.55Q149.41-20.58 152.66-24.06 155.91-27.55 161.69-27.55L161.69-27.55Q167.51-27.55 170.72-24.09 173.94-20.63 173.94-13.55L173.94-13.55Q173.94-8.85 172.44-5.71 170.94-2.58 168.19-1.05 165.44 0.48 161.69 0.48L161.69 0.48ZM161.69-2.85Q165.59-2.85 167.67-5.35 169.76-7.85 169.76-13.5L169.76-13.5Q169.76-19.23 167.69-21.73 165.61-24.23 161.69-24.23L161.69-24.23Q157.76-24.23 155.67-21.74 153.59-19.25 153.59-13.6L153.59-13.6Q153.59-7.88 155.67-5.36 157.76-2.85 161.69-2.85L161.69-2.85ZM207.86-4.3L214.88-27.13 218.76-27.13 210.38 0 205.56 0 198.21-23.15 190.83 0 185.98 0 177.56-27.13 181.58-27.13 188.61-4.23 195.83-27.13 200.66-27.13 207.86-4.3Z" opacity="1" transform="matrix(1,0,0,1,0,0)" fill="black" class="wordmark-text-0" id="SvgjsPath2085"></path></svg></g></svg></g><g transform="matrix(1,0,0,1,0,94.1053210171668)"><svg viewBox="0 0 232.209792 33.48077190598459" height="33.48077190598459" width="232.209792"><g transform="matrix(1,0,0,1,0,0)"><svg width="232.209792" viewBox="-0.8 -35.5 268.68 36.5" height="33.48077190598459" data-palette-color="url(#077afa07-22a7-4c3b-bd12-815c1926e42a)"><path d="M18.75-16.75L18.75-16.75 16.4-16.65Q6.6-16.15 3.3-13.8L3.3-13.8Q0.2-11.55 0.2-7.1L0.2-7.1Q0.2-4.15 1.3-2.43 2.4-0.7 4.4-0.7L4.4-0.7Q6.25-0.7 6.25-3.55L6.25-3.55 6.25-31.7 2.6-31.7 2.6-32.5 15.6-32.5 15.6-31.7 11.45-31.7 11.45-5.25Q11.45-2.15 9.93-0.58 8.4 1 5.68 1 2.95 1 1.07-1.03-0.8-3.05-0.8-6.8L-0.8-6.8Q-0.8-11.3 1.7-13.6L1.7-13.6Q4.3-15.9 7.9-16.6L7.9-16.6Q12.15-17.45 19-17.65L19-17.65Q24.4-17.8 25.78-18.13 27.15-18.45 28.45-18.8 29.75-19.15 30.35-19.6 30.95-20.05 31.78-20.75 32.6-21.45 33-22.3L33-22.3Q33.9-24.4 33.9-26.65 33.9-28.9 33.4-30.1 32.9-31.3 32.05-31.3L32.05-31.3Q30.4-31.3 30.4-28.65L30.4-28.65 30.4-0.8 34.55-0.8 34.55 0 21.55 0 21.55-0.8 25.2-0.8 25.2-27.75Q25.2-30.65 26.53-32.05 27.85-33.45 30.05-33.45 32.25-33.45 33.58-31.73 34.9-30 34.9-27.03 34.9-24.05 33.93-22.15 32.95-20.25 31.73-19.28 30.5-18.3 27.95-17.73 25.4-17.15 23.75-17.03 22.1-16.9 18.75-16.75ZM58.4-2.5Q55.5 1 50.3 1 45.1 1 42.2-2.5 39.3-6 39.3-11.5 39.3-17 42.2-20.5 45.1-24 50.3-24 55.5-24 58.4-20.5 61.3-17 61.3-11.5 61.3-6 58.4-2.5ZM56.35-8.15Q56.45-9.6 56.45-11.5 56.45-13.4 56.35-14.85 56.25-16.3 55.87-17.95 55.5-19.6 54.87-20.68 54.25-21.75 53.07-22.45 51.9-23.15 50.3-23.15 48.7-23.15 47.52-22.45 46.35-21.75 45.72-20.68 45.1-19.6 44.72-17.95 44.35-16.3 44.25-14.85 44.15-13.4 44.15-11.5 44.15-9.6 44.25-8.15 44.35-6.7 44.72-5.05 45.1-3.4 45.72-2.33 46.35-1.25 47.52-0.55 48.7 0.15 50.3 0.15 51.9 0.15 53.07-0.55 54.25-1.25 54.87-2.33 55.5-3.4 55.87-5.05 56.25-6.7 56.35-8.15ZM73.7-0.75L77-0.75 77 0 65.95 0 65.95-0.75 69.25-0.75 69.25-22.25 65.7-22.25 65.7-23 66.75-23Q70.7-23 73.8-23.65L73.8-23.65 73.8-18.65 74.1-18.65Q74.95-21.05 76.9-22.53 78.85-24 81.35-24L81.35-24Q87.3-24 88.4-18.65L88.4-18.65 88.7-18.65Q89.55-21.05 91.5-22.53 93.45-24 95.95-24L95.95-24Q100.25-24 101.7-21.5 103.15-19 103.15-13.75L103.15-13.75 103.15-0.75 106.45-0.75 106.45 0 95.4 0 95.4-0.75 98.7-0.75 98.7-14.9Q98.7-20.6 97.05-22L97.05-22Q96.25-22.6 95-22.6L95-22.6Q88.3-22.6 88.3-9.8L88.3-9.8 88.3-0.75 91.6-0.75 91.6 0 80.8 0 80.8-0.75 84.1-0.75 84.1-14.9Q84.1-20.6 82.45-22L82.45-22Q81.65-22.6 80.4-22.6L80.4-22.6Q73.7-22.6 73.7-9.8L73.7-9.8 73.7-0.75ZM121.24-24L121.24-24Q124.99-24 127.52-22.4 130.04-20.8 130.04-17.6L130.04-17.6Q130.04-12.65 124.39-11.5L124.39-11.5Q121.54-10.95 117.29-10.95L117.29-10.95 114.94-10.95 114.94-9.5Q114.94-5.45 116.62-2.93 118.29-0.4 121.52-0.4 124.74-0.4 126.57-2.3 128.39-4.2 129.14-7.2L129.14-7.2 130.04-7.1Q129.24-3.45 126.82-1.23 124.39 1 120.69 1L120.69 1Q115.49 1 112.79-2.43 110.09-5.85 110.09-11.5 110.09-17.15 112.99-20.58 115.89-24 121.24-24ZM114.94-13.25L114.94-11.85 116.69-11.85Q120.74-11.85 122.37-12.65 123.99-13.45 124.59-14.63 125.19-15.8 125.19-17.95 125.19-20.1 124.12-21.63 123.04-23.15 120.84-23.15 118.64-23.15 117.27-21.58 115.89-20 115.42-17.9 114.94-15.8 114.94-13.25L114.94-13.25ZM170.29-27Q170.04-28.85 167.54-30.65 165.04-32.45 162.19-32.45 159.34-32.45 157.54-31.65 155.74-30.85 154.64-29.5 153.54-28.15 152.84-26.05L152.84-26.05Q151.64-22.25 151.64-16.4L151.64-16.4Q151.64-7.9 152.74-5.2L152.74-5.2Q153.29-3.85 154.14-2.5L154.14-2.5Q155.79 0.05 159.69 0.05L159.69 0.05Q163.44 0.05 165.14-2.55L165.14-2.55Q166.94-5.25 167.34-8.8L167.34-8.8Q167.74-12.15 167.74-15.43 167.74-18.7 167.69-19.9L167.69-19.9Q167.89-19.9 168.54-19.9 169.19-19.9 170.84-20.65 172.49-21.4 172.84-23.1L172.84-23.1Q173.84-19.75 173.84-16.4L173.84-16.4Q173.84-9.05 170.11-4.03 166.39 1 159.69 1 152.99 1 149.26-4.03 145.54-9.05 145.54-16.65 145.54-24.25 149.56-28.88 153.59-33.5 160.69-33.5L160.69-33.5Q164.99-33.5 168.14-31.25 171.29-29 171.29-26.25L171.29-26.25Q171.29-24.55 170.21-23.45 169.14-22.35 167.74-22.35 166.34-22.35 165.34-23.2 164.34-24.05 164.34-25.45 164.34-26.85 165.11-27.65 165.89-28.45 166.99-28.45L166.99-28.45Q168.74-28.45 169.34-26.9L169.34-26.9Q169.49-26.5 169.84-26.5L169.84-26.5Q170.39-26.5 170.29-27L170.29-27ZM190.24-30.3L190.24-30.3Q190.88-30.3 190.88-31.55 190.88-32.8 189.99-33.7 189.09-34.6 187.41-34.6 185.74-34.6 184.71-33.3 183.69-32 183.69-30.05 183.69-28.1 184.91-26.2 186.13-24.3 186.28-23L186.28-23 190.94-23 190.94-22.25 186.34-22.25 186.34-0.75 189.63-0.75 189.63 0 178.59 0 178.59-0.75 181.88-0.75 181.88-22.25 178.34-22.25 178.34-23 181.88-23 181.88-26.4Q181.88-35.5 187.69-35.5L187.69-35.5Q189.44-35.5 190.61-34.33 191.78-33.15 191.78-31.55 191.78-29.95 190.78-28.8 189.78-27.65 188.44-27.65 187.09-27.65 186.26-28.43 185.44-29.2 185.44-30.33 185.44-31.45 186.09-32.23 186.74-33 187.76-33 188.78-33 189.34-32.5 189.88-32 189.88-31.25L189.88-31.25 189.84-30.7Q189.84-30.3 190.24-30.3ZM205.78-30.3L205.78-30.3Q206.43-30.3 206.43-31.55 206.43-32.8 205.53-33.7 204.63-34.6 202.96-34.6 201.28-34.6 200.26-33.3 199.23-32 199.23-30.05 199.23-28.1 200.46-26.2 201.68-24.3 201.83-23L201.83-23 206.48-23 206.48-22.25 201.88-22.25 201.88-0.75 205.18-0.75 205.18 0 194.13 0 194.13-0.75 197.43-0.75 197.43-22.25 193.88-22.25 193.88-23 197.43-23 197.43-26.4Q197.43-35.5 203.23-35.5L203.23-35.5Q204.98-35.5 206.16-34.33 207.33-33.15 207.33-31.55 207.33-29.95 206.33-28.8 205.33-27.65 203.98-27.65 202.63-27.65 201.81-28.43 200.98-29.2 200.98-30.33 200.98-31.45 201.63-32.23 202.28-33 203.31-33 204.33-33 204.88-32.5 205.43-32 205.43-31.25L205.43-31.25 205.38-30.7Q205.38-30.3 205.78-30.3ZM217.38-23.65L217.38-0.75 220.68-0.75 220.68 0 209.63 0 209.63-0.75 212.93-0.75 212.93-22.25 209.38-22.25 209.38-23 210.43-23Q214.33-23 217.38-23.65L217.38-23.65ZM212.91-28.48Q212.08-29.3 212.08-30.55 212.08-31.8 212.91-32.65 213.73-33.5 214.98-33.5 216.23-33.5 217.08-32.65 217.93-31.8 217.93-30.55 217.93-29.3 217.08-28.48 216.23-27.65 214.98-27.65 213.73-27.65 212.91-28.48ZM236.78-23L236.78-23Q229.98-23 229.98-11.7 229.98-0.4 236.88-0.4L236.88-0.4Q239.48-0.4 241.15-2.3 242.83-4.2 243.48-7.2L243.48-7.2 244.38-7.1Q243.63-3.45 241.38-1.23 239.13 1 235.68 1L235.68 1Q230.53 1 227.83-2.48 225.13-5.95 225.13-11.6 225.13-17.25 227.85-20.63 230.58-24 235.98-24L235.98-24Q239.43-24 241.58-22.5 243.73-21 243.73-17.95L243.73-17.95Q243.73-16.45 242.75-15.43 241.78-14.4 240.45-14.4 239.13-14.4 238.3-15.18 237.48-15.95 237.48-17.07 237.48-18.2 238.13-18.98 238.78-19.75 239.88-19.75L239.88-19.75Q241.58-19.75 241.88-18.45L241.88-18.45Q241.93-18 242.35-18 242.78-18 242.78-18.45L242.78-18.45Q242.78-20.15 241.25-21.58 239.73-23 236.78-23ZM259.08-24L259.08-24Q262.83-24 265.35-22.4 267.88-20.8 267.88-17.6L267.88-17.6Q267.88-12.65 262.23-11.5L262.23-11.5Q259.38-10.95 255.13-10.95L255.13-10.95 252.78-10.95 252.78-9.5Q252.78-5.45 254.45-2.93 256.13-0.4 259.35-0.4 262.58-0.4 264.4-2.3 266.23-4.2 266.98-7.2L266.98-7.2 267.88-7.1Q267.08-3.45 264.65-1.23 262.23 1 258.53 1L258.53 1Q253.33 1 250.63-2.43 247.93-5.85 247.93-11.5 247.93-17.15 250.83-20.58 253.73-24 259.08-24ZM252.78-13.25L252.78-11.85 254.53-11.85Q258.58-11.85 260.2-12.65 261.83-13.45 262.43-14.63 263.03-15.8 263.03-17.95 263.03-20.1 261.95-21.63 260.88-23.15 258.68-23.15 256.48-23.15 255.1-21.58 253.73-20 253.25-17.9 252.78-15.8 252.78-13.25L252.78-13.25Z" opacity="1" transform="matrix(1,0,0,1,0,0)" fill="black" class="slogan-text-1" id="SvgjsPath2084"></path></svg></g></svg></g></svg></g></svg></g><g><svg viewBox="0 0 214.48851839999998 214.48851839999998" height="214.48851839999998" width="214.48851839999998"><g><svg></svg></g><g id="SvgjsG2083"><svg viewBox="0 0 214.48851839999998 214.48851839999998" height="214.48851839999998" width="214.48851839999998"><g><rect width="195.02567136" height="195.02567136" x="9.731423519999993" y="9.731423519999993" fill="black"></rect><rect width="195.02567136" height="195.02567136" x="19.462847039999993" y="-5.329070518200751e-15" fill="black" opacity="0.5"></rect></g><g transform="matrix(1,0,0,1,27.80406719999999,42.99251652216971)"><svg viewBox="0 0 158.880384 128.50348535566056" height="128.50348535566056" width="158.880384"><g><svg xmlns="http://www.w3.org/2000/svg" xmlns:xlink="http://www.w3.org/1999/xlink" version="1.1" x="0" y="0" viewBox="1.8 10.100000107039612 86.3 69.79999989296039" enable-background="new 0 0 90 90" xml:space="preserve" height="128.50348535566056" width="158.880384" class="icon-dxe-0" data-fill-palette-color="quaternary" id="SvgjsSvg2082"><g fill="black"><circle cx="28.7" cy="16.4" r="6.3" fill="black"></circle><path d="M49.8 42.2H73.6C74.6 42.2 75.3 41.4 75.3 40.5V25C75.3 24 74.5 23.3 73.6 23.3H49.8C48.8 23.3 48.1 24.1 48.1 25V40.4C48.1 41.4 48.9 42.2 49.8 42.2" fill="black"></path><path d="M56.5 42.6C55.7 42.6 55.1 43.2 55.1 44S55.7 45.4 56.5 45.4H67C67.8 45.4 68.4 44.8 68.4 44S67.8 42.6 67 42.6z" fill="black"></path><path d="M85.8 46H4.2C2.9 46 1.8 47.1 1.8 48.4S2.9 50.8 4.2 50.8H85.7C87 50.8 88.1 49.7 88.1 48.4S87.1 46 85.8 46" fill="black"></path><path d="M84.5 52H5.5C4.6 52 3.8 52.8 3.8 53.7V59C3.8 59.9 4.6 60.7 5.5 60.7H84.4C85.3 60.7 86.1 59.9 86.1 59V53.8C86.1 52.8 85.4 52 84.5 52" fill="black"></path><path d="M84.5 61.7H5.5C4.6 61.7 3.8 62.5 3.8 63.4V68.6C3.8 69.5 4.6 70.3 5.5 70.3H84.4C85.3 70.3 86.1 69.5 86.1 68.6V63.4C86.1 62.4 85.4 61.7 84.5 61.7" fill="black"></path><path d="M84.5 71.3H5.5C4.6 71.3 3.8 72.1 3.8 73V78.2C3.8 79.1 4.6 79.9 5.5 79.9H84.4C85.3 79.9 86.1 79.1 86.1 78.2V73C86.1 72.1 85.4 71.3 84.5 71.3" fill="black"></path><path d="M19.9 33.7H21.1V45.6H35.8V33.7H36.8V45.6H42V28.9C41.9 26.4 39.9 24.5 37.4 24.5H19.3C16.8 24.5 14.8 26.5 14.7 28.9V45.7H19.9z" fill="black"></path></g></svg></g></svg></g></svg></g></svg></g></svg></g><defs><mask></mask></defs></svg><rect width="395.52" height="135.09075474659417" fill="black" stroke="none" visibility="hidden"></rect></g></mask></svg><rect width="395.52" height="135.09075474659417" fill="black" stroke="none" visibility="hidden"></rect></g></mask><linearGradient x1="0" x2="1" y1="0.578" y2="0.595" id="2ac7d510-a31c-420a-85c3-c3b9306dc020"><stop stop-color="#6ee2f5" offset="0"></stop><stop stop-color="#6454f0" offset="1"></stop></linearGradient><rect width="395.52" height="135.09075474659417" fill="url(#2ac7d510-a31c-420a-85c3-c3b9306dc020)" mask="url(#a99971a5-35e8-4d02-a944-5b18b4aea4ed)" data-fill-palette-color="accent"></rect></svg><rect width="395.52" height="135.09075474659417" fill="none" stroke="none" visibility="hidden"></rect></g></svg></g></svg>